<?xml version="1.0" encoding="utf-8"?>
<!-- Generator: Adobe Illustrator 22.0.1, SVG Export Plug-In . SVG Version: 6.00 Build 0)  -->
<svg version="1.1" id="Warstwa_1" xmlns="http://www.w3.org/2000/svg" xmlns:xlink="http://www.w3.org/1999/xlink" x="0px"
     y="0px"
     viewBox="0 0 292.9 112" style="enable-background:new 0 0 292.9 112;" xml:space="preserve">
<style type="text/css">
	.st0{fill:#1062FE;}
	.st1{fill:#2A2E36;}
</style>
  <g>
	<path class="st0" d="M4.4,90.6l35.2,20.3c0.2,0.1,0.5,0.3,0.7,0.3c1.1,0.5,2.3,0.7,3.7,0.7c1.7,0,3.2-0.4,4.4-1.1l35.2-20.3
		c1.3-0.8,2-1.8,2-3c0-1.2-0.7-2.2-2-3L56.4,68.9c-0.6-0.3-1.2-0.5-1.9-0.5c-1.9,0-3.5,1.3-3.8,3.2l-5.9,33.1v-76
		c0-1.4-0.5-2.9-1.3-4.4c-0.8-1.4-1.9-2.6-3.1-3.3L5.1,0.7C3.8-0.1,2.5-0.2,1.5,0.4C0.5,0.9,0,2.1,0,3.6v79.3c0,1.4,0.5,2.9,1.3,4.4
		C2.1,88.7,3.2,89.9,4.4,90.6z"/>
    <g>
		<path class="st1" d="M131.9,73.3c-0.3,0.1-0.7,0.1-1.1,0.2c-1.1,0.1-1.9,0.1-2.6-0.1c-0.3-0.1-0.6-0.2-0.8-0.4
			c-0.2-0.2-0.5-0.6-0.6-1.2c-0.2-0.6-0.3-1.4-0.3-2.5v-37c0-0.5-0.3-0.9-0.8-1c-0.5-0.1-1.1-0.2-1.7-0.2c-1.2-0.1-2.1-0.1-3.3,0
			c-0.6,0-1.2,0.1-1.7,0.2c-0.5,0.1-0.8,0.5-0.8,1v38.4c0,1.8,0.3,3.4,0.8,4.7c0.5,1.3,1.3,2.4,2.2,3.1c0.9,0.8,2,1.3,3.2,1.7
			c1.2,0.3,2.4,0.5,3.7,0.5c0.7,0,1.6,0,2.4-0.1c0.9-0.1,1.8-0.2,2.4-0.5c0.4-0.1,0.7-0.5,0.7-0.9c0-1.8-0.2-3.5-0.6-5.1
			C133,73.5,132.5,73.2,131.9,73.3z"/>
      <path class="st1" d="M151,44.6c-1.7,0-3.4,0.1-5.2,0.4c-1.8,0.3-3.5,0.6-5,1.1c-0.4,0.1-0.7,0.5-0.7,1c0,2.1,0.5,4,1.3,5.6
			c0.2,0.4,0.7,0.6,1.2,0.5c1.2-0.4,2.4-0.7,3.7-0.9c1.2-0.2,2.6-0.3,4-0.3c2.2,0,3.9,0.4,5,1.3c1,0.8,1.5,2.3,1.5,4.5v0.1
			c-0.4,0-0.7-0.1-1.1-0.1c-0.9-0.1-2-0.1-3.4-0.1c-1.9,0-3.8,0.2-5.5,0.7c-1.8,0.5-3.4,1.2-4.7,2.2c-1.4,1-2.5,2.3-3.3,3.8
			c-0.8,1.5-1.2,3.3-1.2,5.3c0,2,0.4,3.8,1.1,5.2c0.7,1.5,1.7,2.7,3,3.6c1.3,0.9,2.8,1.6,4.7,2c1.7,0.4,3.7,0.6,5.9,0.6
			c2.3,0,4.5-0.2,6.7-0.6c2.1-0.4,4-0.7,5.5-1.1c0.5-0.1,0.8-0.5,0.8-1V57.8c0-4.5-1.2-7.9-3.7-10.1C159,45.7,155.5,44.6,151,44.6z
			 M156.9,64.7v8.8c-0.6,0.1-1.2,0.2-1.9,0.3c-1.8,0.2-3.4,0.2-5.3,0c-0.7-0.1-1.4-0.3-2-0.6c-0.6-0.3-1-0.7-1.4-1.3
			c-0.4-0.6-0.5-1.4-0.5-2.5c0-1.7,0.5-2.9,1.7-3.7c1.2-0.9,3-1.3,5.5-1.3c0.6,0,1.5,0,2.4,0.1C155.9,64.6,156.4,64.6,156.9,64.7z"
      />
      <path class="st1" d="M203.5,45.2c-1.8,0-3.6,0.2-5.1,0.7c-1.2,0.4-2.3,0.9-3.2,1.4c-1.1-0.7-2.3-1.3-3.7-1.8
			c-1.7-0.6-3.5-0.9-5.6-0.9c-2.2,0-4.3,0.3-6,1c-1.8,0.6-3.3,1.5-4.5,2.7c-1.2,1.1-2.2,2.5-2.8,4c-0.6,1.5-1,3.2-1,4.9
			c0,2.1,0.5,4.1,1.4,5.8c0.7,1.3,1.6,2.4,2.7,3.3c-0.8,0.8-1.5,1.6-2.1,2.5c-0.8,1.3-1.2,2.9-1.2,4.6c0,1.4,0.4,2.7,1,3.7
			c0.4,0.5,0.8,1,1.2,1.4c-1.1,0.8-2,1.7-2.7,2.8c-1,1.5-1.6,3.3-1.6,5.3c0,3.3,1.3,5.8,3.9,7.3c2.4,1.5,6,2.2,10.6,2.2
			c2.6,0,5-0.3,7.2-0.8c2.3-0.6,4.2-1.4,5.9-2.4c1.7-1.1,3-2.4,4-3.9c1-1.5,1.5-3.3,1.5-5.2c0-3-1-5.4-2.9-7.1
			c-1.9-1.7-4.8-2.6-8.9-2.7c0,0,0,0,0,0l-8.5-0.1c-2.3,0-2.9-0.5-3-0.6c-0.4-0.4-0.6-0.8-0.6-1.3c0-0.6,0.2-1.1,0.6-1.6
			c0.4-0.5,0.8-0.8,1.2-1.1c1.4,0.3,2.9,0.5,4.6,0.5c2,0,3.9-0.3,5.6-0.9c1.7-0.6,3.3-1.4,4.5-2.5c1.3-1.1,2.3-2.4,3-4
			c0.7-1.5,1-3.3,1-5.1c0-1.2-0.1-2.3-0.4-3.2c-0.1-0.4-0.2-0.7-0.4-1.1h4.1c0.5,0,0.9-0.4,1-0.8c0.1-0.5,0.2-1.1,0.2-1.6
			c0-0.5,0.1-1.1,0.1-1.6c0-1-0.1-2-0.3-2.9C204.4,45.5,204,45.2,203.5,45.2z M183.1,81l7.3,0.1c2.4,0,3.4,0.5,3.9,0.9
			c0.6,0.5,0.9,1.2,0.9,2.2c0,1.3-0.8,2.4-2.4,3.4c-1.8,1-4.3,1.6-7.5,1.6c-1.1,0-2.1-0.1-3-0.2c-0.8-0.1-1.6-0.4-2.2-0.7
			c-0.6-0.3-1-0.6-1.3-1.1c-0.3-0.4-0.4-1-0.4-1.8c0-1.3,0.4-2.3,1.2-3.2c0.7-0.8,1.8-1.2,3.4-1.2C182.9,81,183,81,183.1,81
			L183.1,81z M181.7,52.8c0.9-1.1,2.3-1.6,4.3-1.6c2,0,3.4,0.5,4.4,1.6c1,1.1,1.4,2.6,1.4,4.4c0,1.8-0.5,3.2-1.4,4.3
			c-0.9,1.1-2.3,1.6-4.4,1.6c-2,0-3.4-0.5-4.3-1.6c-0.9-1.1-1.4-2.5-1.4-4.3C180.3,55.4,180.8,53.9,181.7,52.8z"/>
      <path class="st1" d="M235.5,50c-1.4-1.6-3.1-3-5.1-3.9c-2-1-4.4-1.4-7.1-1.4c-2.7,0-5.1,0.5-7.1,1.4c-2,1-3.8,2.3-5.1,3.9
			c-1.4,1.6-2.4,3.6-3,5.8c-0.6,2.2-1,4.6-1,7.1c0,2.5,0.3,4.9,1,7.1c0.7,2.2,1.7,4.2,3,5.8c1.4,1.6,3.1,3,5.2,3.9
			c2,0.9,4.4,1.4,7.1,1.4c2.7,0,5.1-0.5,7.1-1.4c2-0.9,3.8-2.2,5.2-3.9c1.4-1.6,2.4-3.6,3-5.8c0.6-2.2,1-4.6,1-7.1
			c0-2.5-0.3-4.9-1-7.1C237.8,53.5,236.8,51.6,235.5,50z M223.2,73.9c-2.6,0-4.5-0.9-5.7-2.7c-1.3-2-1.9-4.8-1.9-8.3
			s0.6-6.4,1.9-8.3c1.2-1.8,3.1-2.7,5.7-2.7c2.6,0,4.5,0.9,5.7,2.7c1.3,1.9,1.9,4.7,1.9,8.3c0,3.6-0.7,6.4-1.9,8.3
			C227.6,73,225.8,73.9,223.2,73.9z"/>
      <path class="st1" d="M290.1,48.2c-1.9-2.4-5-3.6-9.1-3.6c-1.3,0-2.6,0.2-3.7,0.6c-1.1,0.4-2,0.9-2.9,1.5c-0.8,0.6-1.6,1.3-2.3,2.1
			c-0.2,0.3-0.4,0.5-0.7,0.8c-0.7-1.3-1.6-2.3-2.7-3.2c-1.6-1.2-3.8-1.8-6.5-1.8c-1.3,0-2.6,0.2-3.7,0.6c-1.1,0.4-2.1,0.9-3,1.5
			c-0.8,0.6-1.5,1.2-2.1,1.9c-0.1-1-0.2-1.8-0.4-2.4c-0.1-0.4-0.4-0.7-0.8-0.8c-0.5-0.1-1-0.2-1.4-0.2c-0.9-0.1-1.9-0.1-2.9,0
			c-0.5,0-1,0.1-1.5,0.2c-0.5,0.1-0.8,0.5-0.8,1v32.8c0,0.5,0.3,0.9,0.8,1c0.5,0.1,1.1,0.2,1.7,0.2c1.2,0.1,2.1,0.1,3.3,0
			c0.6,0,1.2-0.1,1.7-0.2c0.5-0.1,0.8-0.5,0.8-1V62.4c0-1.8,0.2-3.4,0.6-4.7c0.4-1.3,0.9-2.4,1.5-3.2c0.6-0.8,1.3-1.4,2.1-1.8
			c0.8-0.4,1.7-0.6,2.6-0.6c1.5,0,2.6,0.5,3.2,1.7c0.8,1.3,1.1,3.3,1.1,5.9v19.5c0,0.5,0.3,0.9,0.8,1c0.5,0.1,1.1,0.2,1.7,0.2
			c1.2,0.1,2.1,0.1,3.3,0c0.6,0,1.2-0.1,1.7-0.2c0.5-0.1,0.8-0.5,0.8-1V60.6c0-2.8,0.6-4.9,1.8-6.3c1.2-1.4,2.6-2,4.5-2
			c1.7,0,2.9,0.6,3.6,1.7c0.8,1.3,1.2,3.4,1.2,6.1v19.1c0,0.5,0.3,0.9,0.8,1c0.5,0.1,1.1,0.2,1.7,0.2c0.6,0,1.1,0.1,1.6,0.1
			c0.5,0,1,0,1.7-0.1c0.6,0,1.2-0.1,1.7-0.2c0.5-0.1,0.8-0.5,0.8-1V58.3C292.9,53.9,292,50.5,290.1,48.2z"/>
	</g>
</g>
</svg>
